<svg xmlns="http://www.w3.org/2000/svg" width="519.394" height="425.814" viewBox="0 0 519.394 425.814">
  <g id="Grupo_11" data-name="Grupo 11" transform="translate(-1428.908 -242.21)">
    <ellipse id="Elipse_5" data-name="Elipse 5" cx="233.801" cy="16.589" rx="233.801" ry="16.589" transform="translate(1428.908 634.844)" fill="#f4f4f4"/>
    <path id="Caminho_92" data-name="Caminho 92" d="M1673.545,543.268h0a3.7,3.7,0,0,0,2.047-4.82l-67.214-166.407a3.7,3.7,0,0,0-4.82-2.045h0a3.7,3.7,0,0,0-2.047,4.82l67.214,166.407A3.7,3.7,0,0,0,1673.545,543.268Z" transform="translate(144.104 106.628)" fill="#767679" fill-rule="evenodd"/>
    <path id="Caminho_93" data-name="Caminho 93" d="M1619.986,543.268h0a3.7,3.7,0,0,0,2.048-4.82l-67.214-166.407A3.7,3.7,0,0,0,1550,370h0a3.7,3.7,0,0,0-2.047,4.82l67.214,166.407A3.7,3.7,0,0,0,1619.986,543.268Z" transform="translate(99.319 106.628)" fill="#767679" fill-rule="evenodd"/>
    <path id="Caminho_94" data-name="Caminho 94" d="M1564.745,543.268h0a3.7,3.7,0,0,1-2.046-4.82l67.214-166.407a3.7,3.7,0,0,1,4.82-2.045h0a3.7,3.7,0,0,1,2.045,4.82l-67.214,166.407A3.7,3.7,0,0,1,1564.745,543.268Z" transform="translate(111.651 106.628)" fill="#767679" fill-rule="evenodd"/>
    <path id="Caminho_95" data-name="Caminho 95" d="M1600.9,426.045h-67.05a2.939,2.939,0,0,1-2.93-2.931h0a2.939,2.939,0,0,1,2.93-2.932h67.05a2.939,2.939,0,0,1,2.931,2.932h0A2.939,2.939,0,0,1,1600.9,426.045Z" transform="translate(85.298 148.82)" fill="#767679" fill-rule="evenodd"/>
    <path id="Caminho_96" data-name="Caminho 96" d="M1652.333,426.045h-68.149a2.939,2.939,0,0,1-2.93-2.931h0a2.939,2.939,0,0,1,2.93-2.932h68.149a2.939,2.939,0,0,1,2.931,2.932h0A2.939,2.939,0,0,1,1652.333,426.045Z" transform="translate(127.391 148.82)" fill="#767679" fill-rule="evenodd"/>
    <path id="Caminho_97" data-name="Caminho 97" d="M1571.037,243.9s-30.549,12.437-2.357,42.636l15.161-15.2v-15.45Z" transform="translate(106.887 1.413)" fill="#42373b" fill-rule="evenodd"/>
    <path id="Caminho_98" data-name="Caminho 98" d="M1598.72,343.756s20.925-109.241,115.192-98.762c112.945,12.554,95.93,270.554-77.823,269.4C1403.261,512.851,1553.144,335.826,1598.72,343.756Z" transform="translate(67.092 1.736)" fill="#ec2928" fill-rule="evenodd"/>
    <path id="Caminho_99" data-name="Caminho 99" d="M1613.868,278.67a17.947,17.947,0,1,1-17.947-17.947A17.947,17.947,0,0,1,1613.868,278.67Z" transform="translate(124.649 15.481)" fill="#42373b" fill-rule="evenodd"/>
    <path id="Caminho_100" data-name="Caminho 100" d="M1624.383,286.75a17.948,17.948,0,1,1-17.947-17.947A17.949,17.949,0,0,1,1624.383,286.75Z" transform="translate(133.44 22.237)" fill="#42373b" fill-rule="evenodd"/>
    <path id="Caminho_101" data-name="Caminho 101" d="M1511.279,543.075h0a3.7,3.7,0,0,1-2.046-4.814l67.152-166.249a3.7,3.7,0,0,1,4.814-2.046h0a3.7,3.7,0,0,1,2.044,4.816l-67.15,166.249A3.7,3.7,0,0,1,1511.279,543.075Z" transform="translate(66.943 106.604)" fill="#767679" fill-rule="evenodd"/>
    <rect id="Retângulo_10" data-name="Retângulo 10" width="15.967" height="27.632" transform="translate(1547.435 609.245) rotate(6.04)" fill="#ffd46e"/>
    <path id="Caminho_102" data-name="Caminho 102" d="M1505.985,455.066,1492.77,465.13a18.156,18.156,0,0,1-10.914,3.713l-4.021.02a4.155,4.155,0,0,0-3.93,2.87h0c-.762,2.339,1.181,7.8,7.659,7.9l8.48.279,31.191-1.79s10.523-1.664,4.614-21.729Z" transform="translate(37.496 177.99)" fill="#42373b" fill-rule="evenodd"/>
    <path id="Caminho_103" data-name="Caminho 103" d="M1532.859,471.563l-15.878-1.68,7.413-27.41,15.878,1.68Z" transform="translate(73.647 167.459)" fill="#ffd46e" fill-rule="evenodd"/>
    <path id="Caminho_104" data-name="Caminho 104" d="M1531.093,455.4l-13.217,10.064a18.148,18.148,0,0,1-10.914,3.713l-4.02.02a4.157,4.157,0,0,0-3.931,2.87h0c-.762,2.341,1.183,7.8,7.661,7.9l8.48.279,31.192-1.79s10.523-1.664,4.614-21.729Z" transform="translate(58.49 178.271)" fill="#42373b" fill-rule="evenodd"/>
    <path id="Caminho_105" data-name="Caminho 105" d="M1546.42,338.928s-15.3,43.94-14.238,52.5a61.667,61.667,0,0,0,10.736,27.418l75.049-.589a34.747,34.747,0,0,0,33.961-40.635l-.053-.3q-.52-3.024-.931-6.067c-1.287-9.5-10.037-25.666-10.037-25.666-23.314,15.114-60.661,9-97.676-.992Z" transform="translate(86.315 80.876)" fill="#705e65" fill-rule="evenodd"/>
    <path id="Caminho_106" data-name="Caminho 106" d="M1501.84,533.733a11.088,11.088,0,0,1-11.076-11.816c2.02-30.578,6.992-109.891,9.873-117.643,3.97-10.689,13.544-18.542,23.8-22.989l81.806-35.473L1650,392.467l-112.687,28.3c3.463,29.449-10.031,66.167-20.358,105.495a10.028,10.028,0,0,1-9.706,7.468Z" transform="translate(51.704 86.631)" fill="#705e65" fill-rule="evenodd"/>
    <path id="Caminho_107" data-name="Caminho 107" d="M1498.926,521.082c.156-1.118,8.265-10.154,8.265-22.811,0-16.089,1.631-38.5,5.887-54.219,8.36-30.883,1.785-44.915,3.432-49.184,4.054-10.52,32.167-6.485,42.846-10.1l76.608-23.832,11.924,24.779-117.419,22.4c3.782,29.528-5.235,64.682-14.916,102.676a13.655,13.655,0,0,1-13.228,10.286Z" transform="translate(58.549 99.282)" fill="#5e4f55" fill-rule="evenodd"/>
    <path id="Caminho_108" data-name="Caminho 108" d="M1526.879,535.956a12.177,12.177,0,0,1-11.741-14.519c5.349-27.192,18.331-85.848,24.706-113.692a33.793,33.793,0,0,1,18.132-22.848l74.515-37.3,57.164,34.7-103.772,38.775a16.093,16.093,0,0,0-10.531,15.112c.174,25.279-12.716,54.889-23.74,88.418a16.681,16.681,0,0,1-16.129,11.509Z" transform="translate(71.911 88.122)" fill="#705e65" fill-rule="evenodd"/>
    <path id="Caminho_109" data-name="Caminho 109" d="M1589.184,285.9l-18.022,31.691L1566.3,371.7l-38.516,39.37,10.965,8.121s22.275-13.8,39.814-27.055a25.175,25.175,0,0,0,9.813-17.031c1.875-15.336,5.12-41.9,5.12-41.9l.1-33.83Z" transform="translate(82.68 36.535)" fill="#ffd46e" fill-rule="evenodd"/>
    <path id="Caminho_110" data-name="Caminho 110" d="M1633.719,330.8c-2.3-23.421,21.55-41.358,8.232-44.664-10.259-4.383-27.4-9.657-27.4-9.657l-7.088-.595-2.661-.466c-8.549-1.493-15.971,4.284-26,7.738-9.541,3.063-26.608,9.377-28.663,52.752-.017.342,3.134,1.884,7.284,3.764a19.39,19.39,0,0,0,2.562,10.345,56.592,56.592,0,0,1,7.484,24.82l-3.19,50.468s101.211,32.108,94.462,1.831Z" transform="translate(101.369 27.568)" fill="#e5e5e5" fill-rule="evenodd"/>
    <path id="Caminho_111" data-name="Caminho 111" d="M1568.867,389.118s38.749-29.032,36.75-58.263c0,0,8.724-11.234,12.091-21.34l7.516,37.311-30.316,42.291-14.253,5.644Z" transform="translate(117.034 56.281)" fill="#bfbfc1" fill-rule="evenodd"/>
    <path id="Caminho_112" data-name="Caminho 112" d="M1573.031,352.605s-4.995-.066-10.656,6.961c-7.358,9.135-7.7,7.036-1.761,15.229,1.662,2.293,9.715,3.518,9.715,3.518l14.956-6.28s19.431-1.4,15.691-13.463C1598.339,350.06,1573.031,352.605,1573.031,352.605Z" transform="translate(106.674 92.014)" fill="#ffd46e" fill-rule="evenodd"/>
    <g id="Grupo_10" data-name="Grupo 10" transform="translate(1574.609 407.152)">
      <path id="Caminho_113" data-name="Caminho 113" d="M1600.045,369.274l-44.25-.731.268-5.047,44.25.731Z" transform="translate(-1468.507 -305.733)" fill="#80cfd3" fill-rule="evenodd"/>
      <path id="Caminho_114" data-name="Caminho 114" d="M1606.862,395.047l-76.129-1.258-21.586-61.751,78.97,1.3a4.825,4.825,0,0,1,4.476,3.234l18.428,52.714A4.33,4.33,0,0,1,1606.862,395.047Z" transform="translate(-1507.513 -332.038)" fill="#fff" fill-rule="evenodd"/>
      <path id="Caminho_115" data-name="Caminho 115" d="M1605.243,394.993l-74.344-1.228a3.748,3.748,0,0,1-3.478-2.512l-18.951-54.208a3.752,3.752,0,0,1,3.6-4.987l74.346,1.228a3.751,3.751,0,0,1,3.478,2.512l18.95,54.208A3.75,3.75,0,0,1,1605.243,394.993Z" transform="translate(-1508.257 -332.022)" fill="#80cfd3" fill-rule="evenodd"/>
      <path id="Caminho_116" data-name="Caminho 116" d="M1544.433,352.659c.777,3.841-2.06,6.9-6.337,6.829s-8.37-3.243-9.146-7.084,2.06-6.9,6.337-6.829S1543.656,348.817,1544.433,352.659Z" transform="translate(-1491.061 -320.72)" fill="#fff" fill-rule="evenodd"/>
    </g>
    <path id="Caminho_117" data-name="Caminho 117" d="M1615.687,321.8c1.867,8.663,3.546,19.045-1.456,26.359l-41.1,44.3,10.955,10.156s26.241-23.766,42.5-40.273c13.375-13.579,11.963-14.229,12.582-20.589.749-7.69-.239-21-.538-31.1Z" transform="translate(120.597 57.235)" fill="#ffd46e" fill-rule="evenodd"/>
    <path id="Caminho_118" data-name="Caminho 118" d="M1566.626,442.865c.4.4,50.211-117.8,107.434-122.425,55.991-4.53,42.664,4.7,42.664,4.7l-86.806,117.214Z" transform="translate(115.16 64.371)" fill="#ec2928" fill-rule="evenodd"/>
    <path id="Caminho_119" data-name="Caminho 119" d="M1555.577,316.828s5.964,7.016,10.922,8.424l-6.829,3.575Z" transform="translate(105.92 62.396)" fill="#bfbfc1" fill-rule="evenodd"/>
    <path id="Caminho_120" data-name="Caminho 120" d="M1632.924,346.646s1.263-54.834-22.411-64-18.45,36.711-18.45,36.711l5.968,36.933Z" transform="translate(136.021 32.796)" fill="#e5e5e5" fill-rule="evenodd"/>
    <path id="Caminho_121" data-name="Caminho 121" d="M1581.528,277.795l-18.316,7.453s-3.114,20.955,21.5,22.769,34.66-26,34.66-26l-17.63-7.277Z" transform="translate(112.198 27.204)" fill="#bfbfc1"/>
    <path id="Caminho_122" data-name="Caminho 122" d="M1671.878,465.114s-1.8-34.829,13.821-52.649,6.608-55.079,27.638-67.229,31.845-18.63,31.845-18.63-.6,41.311-18.024,55.89-12.218,36.538-18.428,57.51-19.427,38.068-19.427,38.068Z" transform="translate(203.119 70.572)" fill="#97a85e"/>
    <path id="Caminho_123" data-name="Caminho 123" d="M1672.831,302.786s15.022,3.239,15.022,26.73,28.241,41.309,19.227,74.518-13.819,72.089-13.819,72.089l-2.418,19.625-24.02-5.046s14.893-40.5,9.55-52.649-1.865-38.068,0-51.839-7.146-16.2-9.55-29.969S1672.231,329.515,1672.831,302.786Z" transform="translate(198.562 50.654)" fill="#97a85e"/>
    <path id="Caminho_124" data-name="Caminho 124" d="M1704.145,434.023s-10.679-85.769-50.336-67.139-28.241,57.328-40.259,67.139c0,0,16.223,8.189,23.433-8.821s16.825-39.689,24.634-32.4,8.614,41.221,25.637,41.221Z" transform="translate(154.398 102.038)" fill="#97a85e"/>
    <path id="Caminho_125" data-name="Caminho 125" d="M1632.406,323.33s-4.207,36.449,10.215,51.03,25.235,18.628,30.042,35.233,14.422,64.393,14.422,64.393l14.563-3.788s2.26-35.9-7.352-52.1-3.006-41.309-22.833-55.079S1634.809,345.2,1632.406,323.33Z" transform="translate(169.687 67.833)" fill="#97a85e"/>
    <path id="Caminho_126" data-name="Caminho 126" d="M1684.849,522.46h0a34.635,34.635,0,0,1-34.635-34.634v-86.61h69.271v86.61A34.635,34.635,0,0,1,1684.849,522.46Z" transform="translate(185.056 132.961)" fill="#e5e5e5"/>
    <path id="Caminho_127" data-name="Caminho 127" d="M1712.047,484.7V404.954c-13.918,58.569-41.83,95.993-52.936,109.112a34.412,34.412,0,0,0,18.3,5.268h0A34.635,34.635,0,0,0,1712.047,484.7Z" transform="translate(192.495 136.086)" fill="#dbdbdb"/>
    <path id="Caminho_128" data-name="Caminho 128" d="M1668.929,423.78s-.387-29.77-13.263-47.295" transform="translate(189.615 112.281)" fill="none" stroke="#42373b" stroke-linecap="round" stroke-linejoin="round" stroke-width="1.505"/>
    <path id="Caminho_129" data-name="Caminho 129" d="M1673.525,447.086s16.641-16.526,13.077-35.642-1.3-24.3,3.889-33.051,8.063-29.941,10.51-34.6" transform="translate(204.548 84.946)" fill="none" stroke="#42373b" stroke-linecap="round" stroke-linejoin="round" stroke-width="1.505"/>
    <path id="Caminho_130" data-name="Caminho 130" d="M1571.5,271.714s2.681,13.05,4.9,23.858a8.143,8.143,0,0,0,13.512,4.332c.7-.656,1.392-1.293,2.044-1.9a10.415,10.415,0,0,0,2.846-10.782c-3.121-9.848-8.8-27.787-8.8-27.787l-14.5,12.277Z" transform="translate(119.232 14.406)" fill="#ffd46e" fill-rule="evenodd"/>
    <path id="Caminho_131" data-name="Caminho 131" d="M1599.354,253.89a10.336,10.336,0,0,0-12.411-7.723c-5.935,1.383-13.421,3.127-19.354,4.508-5.56,1.295-7.266,16.888-5.971,22.447,1.906,8.184,2.828,9.636,4.734,17.818a10.337,10.337,0,0,0,12.413,7.723c5.934-1.383,16.915-4.082,19.769-10.182,2.418-5.169,5.512-7.317,4.218-12.877-1.9-8.182-1.491-13.531-3.4-21.715Z" transform="translate(110.628 3.082)" fill="#ffd46e" fill-rule="evenodd"/>
    <path id="Caminho_132" data-name="Caminho 132" d="M1566.743,253.308s15.576,27.973,40.426,32.469l5.083-9.574s1.074-46.178-47.728-30.892Z" transform="translate(113.401)" fill="#42373b" fill-rule="evenodd"/>
    <path id="Caminho_133" data-name="Caminho 133" d="M1590.5,265.817c0,3.85-2.31,6.972-5.16,6.972s-5.158-3.122-5.158-6.972,2.31-6.974,5.158-6.974S1590.5,261.966,1590.5,265.817Z" transform="translate(126.497 13.909)" fill="#ffd46e" fill-rule="evenodd"/>
    <path id="Caminho_134" data-name="Caminho 134" d="M1573.108,276.414l1.294,2.823,8.975-8.19Z" transform="translate(120.58 24.114)" fill="#ef912b"/>
  </g>
</svg>
