<svg xmlns="http://www.w3.org/2000/svg" width="597.917" height="459.359" viewBox="0 0 597.917 459.359">
  <g id="Grupo_13" data-name="Grupo 13" transform="translate(-188.593 -594.606)">
    <rect id="Retângulo_11" data-name="Retângulo 11" width="213.701" height="92.97" rx="12" transform="translate(572.809 625.489)" fill="#ef912b"/>
    <path id="Caminho_138" data-name="Caminho 138" d="M516.071,642.621H426.338a9.247,9.247,0,0,1-9.22-9.221h0a9.247,9.247,0,0,1,9.22-9.22h89.734a9.248,9.248,0,0,1,9.221,9.22h0A9.249,9.249,0,0,1,516.071,642.621Z" transform="translate(175.176 22.67)" fill="#80cfd3"/>
    <path id="Caminho_139" data-name="Caminho 139" d="M531.649,642.621H495.691a9.247,9.247,0,0,1-9.22-9.221h0a9.247,9.247,0,0,1,9.22-9.22h35.958a9.248,9.248,0,0,1,9.221,9.22h0A9.248,9.248,0,0,1,531.649,642.621Z" transform="translate(228.339 22.67)" fill="#80cfd3"/>
    <path id="Caminho_140" data-name="Caminho 140" d="M520.682,657.262H421.727a4.624,4.624,0,0,1-4.609-4.611h0a4.623,4.623,0,0,1,4.609-4.611h98.955a4.624,4.624,0,0,1,4.611,4.611h0A4.625,4.625,0,0,1,520.682,657.262Z" transform="translate(175.176 40.96)" fill="#fff"/>
    <circle id="Elipse_6" data-name="Elipse 6" cx="50.503" cy="50.503" r="50.503" transform="matrix(0.162, -0.987, 0.987, 0.162, 402.137, 694.272)" fill="#ef912b"/>
    <rect id="Retângulo_12" data-name="Retângulo 12" width="28.508" height="47.607" transform="translate(544.302 755.004)" fill="#767679"/>
    <path id="Caminho_141" data-name="Caminho 141" d="M445.812,721.995h-61.9a4.835,4.835,0,0,1-4.821-4.821h0a4.835,4.835,0,0,1,4.821-4.821h61.9a4.835,4.835,0,0,1,4.821,4.821h0A4.835,4.835,0,0,1,445.812,721.995Z" transform="translate(146.024 90.259)" fill="#767679" fill-rule="evenodd"/>
    <ellipse id="Elipse_7" data-name="Elipse 7" cx="298.959" cy="14.97" rx="298.959" ry="14.97" transform="translate(188.593 1024.027)" fill="#f4f4f4"/>
    <path id="Caminho_142" data-name="Caminho 142" d="M308.684,903.513h0a3.084,3.084,0,0,0,1.908-4.015l-57.66-136.369a3.316,3.316,0,0,0-4.289-1.613h0a3.082,3.082,0,0,0-1.908,4.014L304.4,901.9A3.319,3.319,0,0,0,308.684,903.513Z" transform="translate(44.399 127.755)" fill="#767679" fill-rule="evenodd"/>
    <path id="Caminho_143" data-name="Caminho 143" d="M264.532,829.52l21.435,10.242,14.579-16.637-21.435-10.242Z" transform="translate(58.211 167.32)" fill="#ef912b" fill-rule="evenodd"/>
    <path id="Caminho_144" data-name="Caminho 144" d="M304.66,862.336a3.2,3.2,0,0,1-2.139,1.307c-.9.152-7.852-2.487-8.651-2.959-7.6-4.473-21.591-13.761-31.662-19.687a6.537,6.537,0,0,1-3.091-3.936,5.157,5.157,0,0,1,.926-4.506c3.761-4.835,8.937-11.493,8.937-11.493l22.342,11.2s7.882,15.125,13.558,22.577c2.378,3.123,1.848,4.459-.219,7.5Z" transform="translate(53.929 173.59)" fill="#42373b" fill-rule="evenodd"/>
    <path id="Caminho_145" data-name="Caminho 145" d="M380.056,785.1l-84.934,83.976L267.4,853.545c20.192-40.488,51.009-90.048,79.129-89.073Z" transform="translate(60.41 130.2)" fill="#42373b" fill-rule="evenodd"/>
    <path id="Caminho_146" data-name="Caminho 146" d="M344.337,851.541l20.244-12.432-6.048-21.278-20.244,12.432Z" transform="translate(114.75 171.113)" fill="#ef912b" fill-rule="evenodd"/>
    <path id="Caminho_147" data-name="Caminho 147" d="M394.918,834.908a3.2,3.2,0,0,1-.131,2.505c-.385.83-6.489,5.072-7.329,5.466-7.985,3.745-23.552,10.038-34.132,15a6.541,6.541,0,0,1-4.994.327,5.16,5.16,0,0,1-3.2-3.31c-1.864-5.833-4.432-13.866-4.432-13.866l21.863-12.108s16.934,2.044,26.288,1.57c3.92-.2,4.722.995,6.063,4.416Z" transform="translate(116.601 179.614)" fill="#42373b" fill-rule="evenodd"/>
    <path id="Caminho_148" data-name="Caminho 148" d="M548.1,936.609h0a4.834,4.834,0,0,1-6.187-2.6L457.4,726.856a4.537,4.537,0,0,1,2.7-5.952h0a4.835,4.835,0,0,1,6.188,2.6L550.8,930.659A4.535,4.535,0,0,1,548.1,936.609Z" transform="translate(205.802 96.569)" fill="#767679" fill-rule="evenodd"/>
    <path id="Caminho_149" data-name="Caminho 149" d="M193.961,943.523h0a4.641,4.641,0,0,1-2.556-6.179l90.636-216.238a4.951,4.951,0,0,1,6.3-2.745h0a4.639,4.639,0,0,1,2.556,6.178l-90.635,216.24A4.954,4.954,0,0,1,193.961,943.523Z" transform="translate(1.864 94.619)" fill="#767679" fill-rule="evenodd"/>
    <path id="Caminho_150" data-name="Caminho 150" d="M376.1,956.9h0a4.756,4.756,0,0,1-2.473-6.384L468.372,724.1a5.074,5.074,0,0,1,6.382-2.957h0a4.756,4.756,0,0,1,2.473,6.384L382.479,953.944A5.077,5.077,0,0,1,376.1,956.9Z" transform="translate(141.518 96.759)" fill="#767679" fill-rule="evenodd"/>
    <path id="Caminho_151" data-name="Caminho 151" d="M243.43,731.963s-6.884,53.737,38.007,59.817S413.693,795.6,413.693,795.6s7.481-38.426-20.1-45.019c-34.851-8.333-53.016-12.47-53.016-12.47Z" transform="translate(41.744 105.291)" fill="#57484e" fill-rule="evenodd"/>
    <path id="Caminho_152" data-name="Caminho 152" d="M260.106,672.3l10.81-33.9,23.833,8.983-4.556,32.31c-7.117-8.061-17.918-9.043-30.086-7.393Z" transform="translate(54.818 33.571)" fill="#ef912b" fill-rule="evenodd"/>
    <path id="Caminho_153" data-name="Caminho 153" d="M271.962,644.434a34.508,34.508,0,0,0,10.569,20.511l.954-6.762,1.4-9.93C279.991,648.144,275.507,647.22,271.962,644.434Z" transform="translate(63.907 38.195)" fill="#d1761c" fill-rule="evenodd"/>
    <path id="Caminho_154" data-name="Caminho 154" d="M263.521,638.233c3.21-15.887,4.36-18.591,18.323-21.282,14.147-1.429,4.8,3.59,19.474,6.89,8.633,1.941,8.706,9.951,7.271,20.015-.5,3.512,1.1,6.807,4.185,10.679.844,2.431-3.153,4.194-4.31,5.236-1.362,1.226-.318,13.058-3.66,15.062-9.167,5.494-24.159-.9-24.159-.9-16.12-8.368-6.987-41-6.987-41C272.737,627.42,262.668,642.452,263.521,638.233Z" transform="translate(57.397 16.937)" fill="#ef912b"/>
    <path id="Caminho_155" data-name="Caminho 155" d="M286.58,647.338s-8.313,16.867-15.632,24.117c-3.984,3.945-8.252-.793-8.562-6.391-.615-11.149-8.584-21.05-3.925-37,2.387-8.176,21.32-12.518,35.7-13.751,16.69-1.431,35.6,20.72,7.962,23.163l-8.555,15.632a2.941,2.941,0,0,1-5.393-.553Z" transform="translate(52.442 15.054)" fill="#42373b" fill-rule="evenodd"/>
    <path id="Caminho_156" data-name="Caminho 156" d="M271.376,631.063c3.293-1.012,7.013,1.581,8.3,5.782s-.332,8.437-3.625,9.449-7.011-1.583-8.3-5.786.334-8.435,3.625-9.446Z" transform="translate(60.339 27.778)" fill="#ef912b" fill-rule="evenodd"/>
    <rect id="Retângulo_13" data-name="Retângulo 13" width="89.172" height="5.662" transform="translate(517.198 812.254) rotate(180)" fill="#767679"/>
    <rect id="Retângulo_14" data-name="Retângulo 14" width="430.777" height="10.692" rx="3.026" transform="translate(260.339 812.254)" fill="#767679"/>
    <path id="Caminho_158" data-name="Caminho 158" d="M345.668,716.279l-3.061,81.908s-42.351,13.276-98.907-1.961c-3.909-2.844-4.514-7.944-.855-15.957L241.855,726a131.176,131.176,0,0,1,4.51-37.168c4.143-15.072,11.693-31.5,25.117-33.9,13.977-2.493,21.409-1.327,36.954,2.109a45.262,45.262,0,0,1,34.976,38.705Z" transform="translate(39.719 45.216)" fill="#80cfd3" fill-rule="evenodd"/>
    <path id="Caminho_159" data-name="Caminho 159" d="M353.78,710.182s7.578-7.133,13.44-5.162c2.793.942,7.1.341,11.292,1.881,4.607,1.692,10.2,7.464,10.2,7.464s.957,6-4.226,7.882c-1.853.671-8.37-3.537-8.37-3.537-4.876,2.653-14.132,5.49-21.375,5l-13.548-.622-6.236-7.639Z" transform="translate(112.195 84.374)" fill="#ef912b" fill-rule="evenodd"/>
    <path id="Caminho_160" data-name="Caminho 160" d="M301.4,667.713l36.64,57.215,46.5,6.064a8.349,8.349,0,0,1,7.268,8.278v14.113l-63.583,1.938L286.6,731.473Z" transform="translate(75.13 56.04)" fill="#80cfd3" fill-rule="evenodd"/>
    <path id="Caminho_161" data-name="Caminho 161" d="M357.01,763.417l23.352,103.626-28.715,13.609c-19.2-39.841-37.269-75.815-33.024-108.652Z" transform="translate(99.196 129.402)" fill="#57484e" fill-rule="evenodd"/>
    <path id="Caminho_162" data-name="Caminho 162" d="M346.382,911.3h0a3.154,3.154,0,0,0,1.846-4.166L287.546,763.275a3.393,3.393,0,0,0-4.351-1.768h0a3.156,3.156,0,0,0-1.848,4.166L342.03,909.531A3.4,3.4,0,0,0,346.382,911.3Z" transform="translate(70.914 127.758)" fill="#767679" fill-rule="evenodd"/>
    <path id="Caminho_163" data-name="Caminho 163" d="M286.979,804.213H233.334a2.541,2.541,0,0,1-2.535-2.533h0a2.543,2.543,0,0,1,2.535-2.535h53.645a2.543,2.543,0,0,1,2.535,2.535h0A2.541,2.541,0,0,1,286.979,804.213Z" transform="translate(32.353 156.789)" fill="#767679" fill-rule="evenodd"/>
    <path id="Caminho_164" data-name="Caminho 164" d="M246.773,911.3h0a3.155,3.155,0,0,1-1.848-4.166l60.683-143.859a3.394,3.394,0,0,1,4.351-1.768h0a3.156,3.156,0,0,1,1.848,4.166L251.124,909.531A3.393,3.393,0,0,1,246.773,911.3Z" transform="translate(42.994 127.758)" fill="#767679" fill-rule="evenodd"/>
    <path id="Caminho_165" data-name="Caminho 165" d="M324.767,804.213H267.315a2.541,2.541,0,0,1-2.535-2.533h0a2.543,2.543,0,0,1,2.535-2.535h57.452a2.541,2.541,0,0,1,2.533,2.535h0A2.54,2.54,0,0,1,324.767,804.213Z" transform="translate(58.401 156.789)" fill="#767679" fill-rule="evenodd"/>
    <path id="Caminho_166" data-name="Caminho 166" d="M212.718,908.075l-.276-.106a3.017,3.017,0,0,1-1.767-3.982l58.411-138.471a3.244,3.244,0,0,1,4.158-1.691l.276.106a3.017,3.017,0,0,1,1.767,3.982L216.875,906.385A3.241,3.241,0,0,1,212.718,908.075Z" transform="translate(16.749 129.544)" fill="#767679" fill-rule="evenodd"/>
    <path id="Caminho_167" data-name="Caminho 167" d="M344.546,789.22H242.252a14.808,14.808,0,0,1-14.807-14.807h0a14.808,14.808,0,0,1,14.807-14.807H344.546a14.808,14.808,0,0,1,14.807,14.807h0A14.808,14.808,0,0,1,344.546,789.22Z" transform="translate(29.782 126.48)" fill="#767679" fill-rule="evenodd"/>
    <path id="Caminho_168" data-name="Caminho 168" d="M308.87,719.083,286.6,698.335v69.514s13.127.4,20.593-3.959c3.683-2.911,4.971-6.149.433-11.6Z" transform="translate(75.13 79.513)" fill="#26b2c0" fill-rule="evenodd"/>
    <path id="Caminho_169" data-name="Caminho 169" d="M486.642,742.476H362.425a9.116,9.116,0,0,1-9.108-9.522l3.62-81.2a9.117,9.117,0,0,1,9.108-8.711H490.262a9.117,9.117,0,0,1,9.108,9.523l-3.62,81.2A9.117,9.117,0,0,1,486.642,742.476Z" transform="translate(126.262 37.126)" fill="#767679" fill-rule="evenodd"/>
    <path id="Caminho_170" data-name="Caminho 170" d="M472.507,728.047H367.39a7.511,7.511,0,0,1-7.707-7.66l3.063-65.318a7.552,7.552,0,0,1,7.707-7.008H475.57a7.512,7.512,0,0,1,7.708,7.66l-3.063,65.318A7.553,7.553,0,0,1,472.507,728.047Z" transform="translate(131.143 40.976)" fill="#e5e5e5" fill-rule="evenodd"/>
    <path id="Retângulo_16" data-name="Retângulo 16" d="M11.13,0H66.65A11.131,11.131,0,0,1,77.78,11.131V40a11.13,11.13,0,0,1-11.13,11.13H11.131A11.131,11.131,0,0,1,0,40V11.13A11.13,11.13,0,0,1,11.13,0Z" transform="translate(511.863 701.045)" fill="#fff"/>
    <path id="Caminho_171" data-name="Caminho 171" d="M379.088,686.8l12.157-21.024a3.656,3.656,0,0,1,6.381.094l10.454,19.372,5.551-7.494a3.656,3.656,0,0,1,6.027.226l5.568,8.826Z" transform="translate(146.024 53.154)" fill="#80cfd3" fill-rule="evenodd"/>
    <circle id="Elipse_8" data-name="Elipse 8" cx="5.287" cy="5.287" r="5.287" transform="translate(557.235 709.647)" fill="#ec2928"/>
  </g>
</svg>
