<svg xmlns="http://www.w3.org/2000/svg" width="874" height="545.224" viewBox="0 0 874 545.224">
  <g id="Grupo_16" data-name="Grupo 16" transform="translate(-906 -259.141)">
    <g id="Grupo_4" data-name="Grupo 4" transform="translate(952.529 53.87)">
      <path id="Caminho_16" data-name="Caminho 16" d="M455.153,549.865h0a3.864,3.864,0,0,0,2.136-5.03L387.138,371.158a3.864,3.864,0,0,0-5.03-2.136h0a3.867,3.867,0,0,0-2.136,5.032l70.149,173.675A3.867,3.867,0,0,0,455.153,549.865Z" transform="translate(235.751 170.355)" fill="#767679" fill-rule="evenodd"/>
      <ellipse id="Elipse_1" data-name="Elipse 1" cx="307.723" cy="17.305" rx="307.723" ry="17.305" transform="translate(153.471 715.886)" fill="#f4f4f4"/>
      <path id="Caminho_17" data-name="Caminho 17" d="M383.082,414.411H321.328a3.068,3.068,0,0,1-3.059-3.059h0a3.068,3.068,0,0,1,3.059-3.059h61.754a3.068,3.068,0,0,1,3.059,3.059h0A3.068,3.068,0,0,1,383.082,414.411Z" transform="translate(171.742 211.575)" fill="#767679" fill-rule="evenodd"/>
      <path id="Caminho_18" data-name="Caminho 18" d="M345.686,549.865h0a3.864,3.864,0,0,1-2.136-5.03L413.7,371.158a3.867,3.867,0,0,1,5.032-2.136h0a3.867,3.867,0,0,1,2.136,5.032L350.716,547.729A3.864,3.864,0,0,1,345.686,549.865Z" transform="translate(197.794 170.355)" fill="#767679" fill-rule="evenodd"/>
      <path id="Caminho_19" data-name="Caminho 19" d="M409.467,549.865h0a3.864,3.864,0,0,0,2.136-5.03L341.454,371.158a3.867,3.867,0,0,0-5.032-2.136h0a3.867,3.867,0,0,0-2.136,5.032l70.151,173.675A3.864,3.864,0,0,0,409.467,549.865Z" transform="translate(188.14 170.355)" fill="#767679" fill-rule="evenodd"/>
      <path id="Caminho_20" data-name="Caminho 20" d="M432.581,414.411H366.426a3.068,3.068,0,0,1-3.059-3.059h0a3.068,3.068,0,0,1,3.059-3.059h66.155a3.068,3.068,0,0,1,3.059,3.059h0A3.068,3.068,0,0,1,432.581,414.411Z" transform="translate(218.74 211.575)" fill="#767679" fill-rule="evenodd"/>
      <path id="Caminho_21" data-name="Caminho 21" d="M342.784,270.53s-17.254,28.2-20.438,78.82c0,0,12.49-1.185,12.453-2.98S342.784,270.53,342.784,270.53Z" transform="translate(175.991 68.008)" fill="#ec2928" fill-rule="evenodd"/>
      <path id="Caminho_22" data-name="Caminho 22" d="M496.293,587.93h0a5.591,5.591,0,0,1-7.152-3l-97.7-239.475a5.246,5.246,0,0,1,3.12-6.88h0a5.591,5.591,0,0,1,7.152,3l97.7,239.475A5.245,5.245,0,0,1,496.293,587.93Z" transform="translate(247.603 138.535)" fill="#767679" fill-rule="evenodd"/>
      <path id="Caminho_23" data-name="Caminho 23" d="M287.726,469.693l-25.3-1.823,8.37-29.132,24.229,1.746Z" transform="translate(113.545 243.303)" fill="#ef912b" fill-rule="evenodd"/>
      <path id="Caminho_24" data-name="Caminho 24" d="M344.315,469.024l-27.087-1.952,3.408-27.9,27.087,1.952Z" transform="translate(170.656 243.752)" fill="#ef912b" fill-rule="evenodd"/>
      <path id="Caminho_25" data-name="Caminho 25" d="M245.3,476.519a3.432,3.432,0,0,0,1,2.73c.717.7,9.043,1.846,10.125,1.791,10.28-.529,29.972-2.69,43.589-3.39a8.847,8.847,0,0,0,5.742-2.589,8.171,8.171,0,0,0,2.473-5.606c.116-7.646.276-18.173.276-18.173l-25.892-2.53s-21.275,14.215-31.982,19.225c-4.489,2.1-4.987,3.911-5.332,8.54v0Z" transform="translate(95.69 253.739)" fill="#42373b" fill-rule="evenodd"/>
      <path id="Caminho_26" data-name="Caminho 26" d="M297.994,560.008h0a3.864,3.864,0,0,1-2.136-5.03l74.248-183.82a3.864,3.864,0,0,1,5.03-2.136h0a3.867,3.867,0,0,1,2.136,5.032L303.024,557.872A3.862,3.862,0,0,1,297.994,560.008Z" transform="translate(148.093 170.355)" fill="#767679" fill-rule="evenodd"/>
      <path id="Caminho_27" data-name="Caminho 27" d="M360.174,610.313h0c-2.839,1.064-6.173-.617-7.45-3.757L240.836,330.914c-1.274-3.141-.006-6.549,2.832-7.615h0c2.839-1.066,6.173.617,7.448,3.758L363,602.7C364.281,605.837,363.013,609.247,360.174,610.313Z" transform="translate(90.53 122.667)" fill="#767679" fill-rule="evenodd"/>
      <rect id="Retângulo_1" data-name="Retângulo 1" width="179.667" height="34.235" rx="8.156" transform="translate(462.943 517.672)" fill="#767679"/>
      <path id="Caminho_28" data-name="Caminho 28" d="M343.359,325.537S327.4,371.4,328.5,380.334a64.363,64.363,0,0,0,11.207,28.616l78.326-.617a36.262,36.262,0,0,0,35.443-42.409l-.053-.315q-.545-3.155-.972-6.333c-1.344-9.917-5.369-39.666-5.369-39.666-24.332,15.773-68.418,22.267-107.051,11.844Z" transform="translate(182.346 119.157)" fill="#f7c4c9" fill-rule="evenodd"/>
      <path id="Caminho_29" data-name="Caminho 29" d="M304.2,350.863l28.808-25.241,21.8-27.291L367.723,328.9c-12.829,19.225-30.683,34.671-58.779,42.415l-3.421-10.249Z" transform="translate(157.078 96.98)" fill="#ec2928" fill-rule="evenodd"/>
      <path id="Caminho_30" data-name="Caminho 30" d="M263.838,548.874c.008-4.4,25.1-99.958,39.268-140.137a45.235,45.235,0,0,1,22.551-25.48l84.126-41.772,54.966,46.689L349.062,435.915c-4.5,30.34-25.9,74.25-50.345,115.891Z" transform="translate(115.017 141.952)" fill="#f7c4c9" fill-rule="evenodd"/>
      <path id="Caminho_31" data-name="Caminho 31" d="M274.02,542.066c3.365-27.842,25.067-52.74,34.859-66.588,12.449-17.6,4.854-46.918,10.029-61.6,1.468-4.166,5.579-9.572,10.7-14.981a93.6,93.6,0,0,1,41.786-25c21.442-6.31,34.151-15.363,47.516-24.207l35.229,29.923L338.451,427.359c-4.5,30.34-25.9,74.25-50.345,115.891Z" transform="translate(125.628 150.508)" fill="#dbaeb2" fill-rule="evenodd"/>
      <path id="Caminho_32" data-name="Caminho 32" d="M159.3,596.318h0a5.361,5.361,0,0,1-2.955-7.141L261.116,339.206a5.725,5.725,0,0,1,7.28-3.174h0a5.364,5.364,0,0,1,2.955,7.141L166.576,593.147A5.723,5.723,0,0,1,159.3,596.318Z" transform="translate(2.535 135.884)" fill="#767679" fill-rule="evenodd"/>
      <path id="Caminho_33" data-name="Caminho 33" d="M300.18,477.728a3.43,3.43,0,0,0,1,2.73c.717.7,9.043,1.846,10.125,1.789,10.28-.527,29.972-2.689,43.591-3.388a8.862,8.862,0,0,0,5.741-2.589,8.182,8.182,0,0,0,2.475-5.606c.114-7.646.274-18.173.274-18.173l-28.772-.631s-18.4,12.316-29.1,17.325c-4.487,2.1-4.987,3.911-5.33,8.54v0Z" transform="translate(152.88 256.978)" fill="#42373b" fill-rule="evenodd"/>
      <path id="Caminho_34" data-name="Caminho 34" d="M350.9,225.232s-18.522,8.373-4.015,25.627,4.015-25.627,4.015-25.627Z" transform="translate(195.785 20.801)" fill="#42373b" fill-rule="evenodd"/>
      <path id="Caminho_35" data-name="Caminho 35" d="M411.728,274.521a18.754,18.754,0,0,0-10.517-15.534c-4.95-2.449-12.853-4.425-23.074-2.036-20.417,4.777-27.287,7.887-27.287,7.887l-7.7,25.474,25.717,12.228,50.647-37.914Z" transform="translate(197.674 52.73)" fill="#ec2928" fill-rule="evenodd"/>
      <path id="Caminho_36" data-name="Caminho 36" d="M344.765,243.466a22.468,22.468,0,0,1,24.663-21.451h0a22.589,22.589,0,0,1,20.35,23.4c-.28,6.88-.586,14.413-.852,20.938a16.049,16.049,0,0,1-17.611,15.32L358.9,280.443a16.583,16.583,0,0,1-14.94-17.176c.245-6.063.533-13.137.8-19.8Z" transform="translate(198.501 17.336)" fill="#ef912b" fill-rule="evenodd"/>
      <path id="Caminho_37" data-name="Caminho 37" d="M395.059,285.2l-16.146-41.911-29.361,13.094,8.147,40.372,37.36-11.555Z" transform="translate(204.343 39.619)" fill="#ef912b" fill-rule="evenodd"/>
      <path id="Caminho_38" data-name="Caminho 38" d="M376.493,243.614s-2.875,20.536,13.245,21.005c0,0,8.2-18.51,9.141-28.01,1.748-17.664-33.622-21.185-47.947-13.666s-5.54,21.089,25.561,20.67Z" transform="translate(198.817 14.533)" fill="#42373b" fill-rule="evenodd"/>
      <path id="Caminho_39" data-name="Caminho 39" d="M365.067,262.134c9.743,14.7,33.046,1.376,36.846-3.821.6-.823,10.883,5.189,12.21,6.1,20.489,14.134,23.154,74.809,26.813,96.679,1.7,10.17,11.244,44.386,6.155,53.261-1.685,2.937-17.675.688-20.826,1.25-13.356,2.379-73.229,7.027-81.45-2.144-8.166-9.108-2.044-26.066-3.623-36.844-8.291-56.632,7.566-105.77,7.566-105.77Z" transform="translate(193.13 55.196)" fill="#fff" fill-rule="evenodd"/>
      <path id="Caminho_40" data-name="Caminho 40" d="M350.3,311.262c11.614,30.979,98.163-2.275,88.324-17.15-13.729-20.76,6.029,14.326,9.688,36.195,1.7,10.17,11.244,44.386,6.155,53.261-1.685,2.937-8.514,26.695-11.712,26.809-42.368,1.53-107.528,3.933-110.459-8.03-4.129-16.858,14.881-45.715,16.272-56.518C352.177,317.811,350.3,311.262,350.3,311.262Z" transform="translate(185.752 85.985)" fill="#e8e8e8" fill-rule="evenodd"/>
      <path id="Caminho_41" data-name="Caminho 41" d="M370.079,237.317c-2.924-.745-6.071,1.683-7.023,5.416s.649,7.374,3.576,8.12,6.071-1.683,7.023-5.418-.649-7.372-3.576-8.117Z" transform="translate(218.13 33.255)" fill="#ef912b" fill-rule="evenodd"/>
      <path id="Caminho_42" data-name="Caminho 42" d="M344.559,247.51c-1.046-1.842-5.446,27.669,12.294,29.168s25.188-5.736,26.393-39.632c0,0-7.115,20.593-17.477,20.905-21.649.656-19.956-8.234-21.21-10.441Z" transform="translate(197.84 33.113)" fill="#42373b" fill-rule="evenodd"/>
      <path id="Caminho_43" data-name="Caminho 43" d="M450.31,370.228l-8.918-13.639-60.065-4.3-44.372,21.075a38.054,38.054,0,0,0-21.728,34.682l.3,37.077.086-.049L313.22,547.781l39.421-1.1c12.445-49.387,17.338-91.385,13.448-129.657Z" transform="translate(166.48 153.206)" fill="#f7c4c9" fill-rule="evenodd"/>
      <path id="Caminho_44" data-name="Caminho 44" d="M373.61,260.261s-10.862,55.281-11.132,88.571-15.11,101.153-15.11,101.153c-5.354-9.943-24.352-6.958-26.056-16.029,0,0,16.639-109.5,19.574-138.211C343.754,267.686,354.6,267.884,373.61,260.261Z" transform="translate(174.914 57.306)" fill="#ec2928" fill-rule="evenodd"/>
      <path id="Caminho_45" data-name="Caminho 45" d="M370.487,243.548s-39.295-3.084-30.166-20.5c8.444-16.112,35.95,17.826,41.731,11.63Z" transform="translate(193.289 13.952)" fill="#42373b" fill-rule="evenodd"/>
      <path id="Caminho_46" data-name="Caminho 46" d="M350.876,329.85s-9.929-6.794-16.272-3.5c-3.022,1.572-8.048,1.656-12.561,4.164-4.96,2.755-10.315,10.343-10.315,10.343s-.025,7.027,6.233,8.248c2.234.437,8.926-5.532,8.926-5.532,6.045,2.161,13.266,2.116,21.451.266Z" transform="translate(164.925 125.242)" fill="#ef912b" fill-rule="evenodd"/>
      <path id="Caminho_47" data-name="Caminho 47" d="M328.605,330.042s-9.4-7.5-15.969-4.681c-3.129,1.346-8.148,1.06-12.835,3.229-5.148,2.385-11.046,9.561-11.046,9.561s-.539,7,5.612,8.683c2.2.6,9.31-4.862,9.31-4.862,5.869,2.6,13.074,3.082,21.373,1.838Z" transform="translate(140.972 124.487)" fill="#ef912b" fill-rule="evenodd"/>
      <path id="Caminho_48" data-name="Caminho 48" d="M334.319,328.787l31.488-2.317,1.236,16.793-39.428-2.177Z" transform="translate(181.481 126.305)" fill="#ef912b" fill-rule="evenodd"/>
      <rect id="Retângulo_2" data-name="Retângulo 2" width="103.083" height="6.545" transform="translate(424.69 464.532)" fill="#fff"/>
      <path id="Caminho_49" data-name="Caminho 49" d="M459.691,374.984a404.708,404.708,0,0,0-4.47-52.134c-3.415-21.865-7.826-38.267-15.5-47.328-6.729-7.944-13.143-9.159-21.708-13.38l-15-4.746c-9.171,42.642-15.5,83.331-11.526,125.556l-50.077,9.935.11,23.869h77.325l15.418-5.011,14.652-8.193A40.609,40.609,0,0,0,459.691,374.984Z" transform="translate(195.865 54.32)" fill="#ec2928" fill-rule="evenodd"/>
      <path id="Caminho_50" data-name="Caminho 50" d="M377.719,376.026h-118.3L223.73,296.479H339.317a4.185,4.185,0,0,1,3.819,2.473Z" transform="translate(73.22 95.05)" fill="#fff" fill-rule="evenodd"/>
      <path id="Caminho_51" data-name="Caminho 51" d="M374.752,376.026h-118.3L222.4,300.141a2.6,2.6,0,0,1,2.369-3.662h112.6a2.6,2.6,0,0,1,2.371,1.536Z" transform="translate(71.598 95.05)" fill="#42373b" fill-rule="evenodd"/>
      <path id="Caminho_52" data-name="Caminho 52" d="M384.54,314.523s-1,42.321-10.764,61.772c-4.315,8.6-26.854,31.516-26.854,31.516s86.46,8.552,89.215-26.323C439.014,345.069,447.3,306,447.3,306Z" transform="translate(201.602 104.971)" fill="#ec2928" fill-rule="evenodd"/>
      <path id="Caminho_53" data-name="Caminho 53" d="M272.792,320.785c1.407,4.962-2.432,8.983-8.575,8.983s-12.265-4.021-13.672-8.983,2.432-8.983,8.577-8.983S271.385,315.823,272.792,320.785Z" transform="translate(100.862 111.019)" fill="#fff" fill-rule="evenodd"/>
      <path id="Caminho_54" data-name="Caminho 54" d="M310.54,611.349h0a5.5,5.5,0,0,1-2.859-7.382l109.528-261.74a5.87,5.87,0,0,1,7.378-3.421h0a5.5,5.5,0,0,1,2.859,7.382L317.918,607.93A5.869,5.869,0,0,1,310.54,611.349Z" transform="translate(160.209 138.793)" fill="#767679" fill-rule="evenodd"/>
      <path id="Caminho_55" data-name="Caminho 55" d="M341.471,335.432" transform="translate(195.921 135.644)" fill="#705e65" fill-rule="evenodd"/>
      <path id="Caminho_56" data-name="Caminho 56" d="M459.635,374.984a404.714,404.714,0,0,0-4.47-52.134c-3.414-21.865-7.825-38.267-15.5-47.328-6.729-7.944-13.143-9.159-21.708-13.38l-15-4.746c57.437,29.421,38.845,92.384,42.815,134.611-9.237,4.915-13.6,3.343-35.086,7.64-11.483,3.5-22.727,8.567-39.991,11.62-12.968-2.747-20.252-3.635-29.231-1.056v6.545H418.8l15.418-5.011,14.652-8.193A40.609,40.609,0,0,0,459.635,374.984Z" transform="translate(195.921 54.32)" fill="#ec2928" fill-rule="evenodd"/>
      <path id="Caminho_57" data-name="Caminho 57" d="M365.18,323.637s24.906-8.687,34.457-8.687c0,0-28.974-.8-34.2.4Z" transform="translate(220.629 114.028)" fill="#ec2928" fill-rule="evenodd"/>
      <path id="Caminho_58" data-name="Caminho 58" d="M626.916,347.793H200.266a6.2,6.2,0,0,1-6.182-6.181h0a6.2,6.2,0,0,1,6.182-6.18h426.65a6.2,6.2,0,0,1,6.182,6.18h0A6.2,6.2,0,0,1,626.916,347.793Z" transform="translate(42.325 135.644)" fill="#767679" fill-rule="evenodd"/>
      <path id="Caminho_59" data-name="Caminho 59" d="M361.153,321.4l14.268-4.284-6.943-14.683s-22.535-10.1-26.031-3.208-.506,24.2,9.1,23.184Z" transform="translate(195.468 95.4)" fill="#ffd46e" fill-rule="evenodd"/>
      <path id="Caminho_60" data-name="Caminho 60" d="M359.762,306.4l-20.393-1.046a4.061,4.061,0,0,1-3.837-4.252h0a4.061,4.061,0,0,1,4.252-3.839l20.393,1.044a4.064,4.064,0,0,1,3.839,4.254h0A4.063,4.063,0,0,1,359.762,306.4Z" transform="translate(189.726 95.857)" fill="#ffd46e" fill-rule="evenodd"/>
      <path id="Caminho_61" data-name="Caminho 61" d="M463.653,300.17c-1.971,14.842,21.134,44.888,19.492,76.429l13.678-.123s3.519-63.641-18.824-94.759C474.223,289.767,469.675,296.359,463.653,300.17Z" transform="translate(323.127 79.666)" fill="#ffd46e" fill-rule="evenodd"/>
      <rect id="Retângulo_3" data-name="Retângulo 3" width="16.086" height="26.346" transform="translate(749.018 683.77) rotate(-1.336)" fill="#ffd46e"/>
      <rect id="Retângulo_4" data-name="Retângulo 4" width="16.655" height="28.824" transform="translate(682.276 681.995) rotate(-1.343)" fill="#ffd46e"/>
      <path id="Caminho_62" data-name="Caminho 62" d="M491.769,301.644l-71.6,2.986c-19.794,36.377-16.8,80.421-16.8,80.421s-1.27,88.241-.272,91.916l17.254,112.07,24.283-3.525c-1.768-43.234-.568-63.018-3.678-92.69L456.634,388.81c24.385-.5,53.228,18.41,56.263-21.773C516.366,321.1,491.769,301.644,491.769,301.644Z" transform="translate(259.745 100.433)" fill="#705e65" fill-rule="evenodd"/>
      <path id="Caminho_63" data-name="Caminho 63" d="M426.836,307.335l15.827,158.578,13.944,118.66,26.707,1.1c3.841-46.673,8.416-74.319-3.323-108.141L487.8,360.514,454.084,316.8Z" transform="translate(284.883 106.363)" fill="#705e65" fill-rule="evenodd"/>
      <path id="Caminho_64" data-name="Caminho 64" d="M446.644,451.854s-3.368,16.919-2.994,27.256a7.338,7.338,0,0,0,7.87,6.58c3.762-.533,8.054-1.144,10.711-1.521a6,6,0,0,0,3.986-2.224l1.94-2.524c3.235-4.209,1.65-8.377-.423-14.26a133.1,133.1,0,0,1-3.7-13.086C454.473,445.693,446.644,451.854,446.644,451.854Z" transform="translate(302.375 254.184)" fill="#42373b" fill-rule="evenodd"/>
      <path id="Caminho_65" data-name="Caminho 65" d="M403.991,213.172s-19.858,26.768,6.745,49.685,22.7-1.5,22.7-1.5S423.671,217.524,403.991,213.172Z" transform="translate(253.654 8.233)" fill="#42373b" fill-rule="evenodd"/>
      <path id="Caminho_66" data-name="Caminho 66" d="M450.4,209.354s7.16,6.8,22.129,10.533c12.957,3.235,20.37,8.265,28.563,21.142,13.108,20.609,33.138,5.483,42.9,37.955,5.983,19.907-7.829,40.6-44.069,30.348s-73.656,30.352-94.6-37.032c-7.4-23.819,32.746-42.242,32.746-42.242Z" transform="translate(261.511 4.254)" fill="#42373b" fill-rule="evenodd"/>
      <path id="Caminho_67" data-name="Caminho 67" d="M402.9,256.2l28.772-10.862,18.24-3.778,23.719,5.207a23.847,23.847,0,0,1,18.626,25.512l-4.8,51.292,6.976,42.691c-28.639,11.7-55.374,17.734-74.46.988l-14.321-46.626Z" transform="translate(259.941 37.814)" fill="#e8e8e8" fill-rule="evenodd"/>
      <path id="Caminho_68" data-name="Caminho 68" d="M413.171,239.749s3.57,15.351,6.525,28.067a9.63,9.63,0,0,0,16.108,4.707c.815-.794,1.607-1.57,2.359-2.3A12.322,12.322,0,0,0,441.2,257.38c-3.992-11.55-11.258-32.592-11.258-32.592l-16.772,14.961Z" transform="translate(270.642 20.338)" fill="#ffd46e" fill-rule="evenodd"/>
      <path id="Caminho_69" data-name="Caminho 69" d="M414.076,238.775s10.711-.811,15.04-5.424c0,0-3.786,12.994-12.716,15.418Z" transform="translate(271.585 29.262)" fill="#ef912b" fill-rule="evenodd"/>
      <path id="Caminho_70" data-name="Caminho 70" d="M442.014,219.209a10.853,10.853,0,0,0-12.974-8.2L408.689,215.6c-5.847,1.317-8.6,6.992-8.2,12.972.47,7.06,4.713,20.971,9.018,30.687,2.428,5.481,8.156,9.747,14,8.428,6.241-1.407,23.605-11.569,22.894-23.133-.539-8.8-2.451-16.735-4.391-25.341Z" transform="translate(257.385 5.699)" fill="#ffd46e" fill-rule="evenodd"/>
      <path id="Caminho_71" data-name="Caminho 71" d="M470.51,230s-15.3-20.436-26.668-22.815c-16.413-3.437-33.005-4.368-44,16.021,0,0,10.609,34.012,61.154,12.892Z" transform="translate(256.754 0)" fill="#42373b" fill-rule="evenodd"/>
      <path id="Caminho_72" data-name="Caminho 72" d="M434.066,230.559c-.623,4.885-4.407,8.426-8.45,7.911s-6.815-4.9-6.192-9.78,4.4-8.426,8.448-7.911S434.689,225.674,434.066,230.559Z" transform="translate(277.067 16.109)" fill="#ffd46e" fill-rule="evenodd"/>
      <path id="Caminho_73" data-name="Caminho 73" d="M427.812,451.7,415.49,463.877a18.947,18.947,0,0,1-10.793,5.305l-4.156.557a4.34,4.34,0,0,0-3.682,3.5h0a4.334,4.334,0,0,0,3.894,5.12l13.9,1.18,32.027-6.032s10.662-3.133,1.86-23.1Z" transform="translate(253.565 255.461)" fill="#42373b" fill-rule="evenodd"/>
      <path id="Caminho_74" data-name="Caminho 74" d="M427.468,248.726s-11.164,1.605-17.856,25.251-23.5,57.77-23.5,57.77-23.989,35.168,18.3,33.618c24.826-.909,43.483-67.18,43.483-67.18l3.08-22.574Z" transform="translate(235.375 45.285)" fill="#e8e8e8" fill-rule="evenodd"/>
      <path id="Caminho_75" data-name="Caminho 75" d="M424.946,319.706l-66.488,3.361-3.3-14.838,56.277-16.315C425.136,287.374,435.293,314.388,424.946,319.706Z" transform="translate(210.183 89.76)" fill="#ffd46e" fill-rule="evenodd"/>
      <path id="Caminho_76" data-name="Caminho 76" d="M474.6,328.241l-2.865,29.6s4.838,23.893,16.745,17.622,5.961-14.379,4.879-17.622,4.973-11.334-5.081-29.721Z" transform="translate(331.673 128.023)" fill="#ffd46e" fill-rule="evenodd"/>
      <path id="Caminho_77" data-name="Caminho 77" d="M441.875,246.056s31.968,19.639,42.419,37.659,43.575,49.9,35.3,69.093-27.734,19.823-39.987-3.915-37.735-40.673-37.735-40.673Z" transform="translate(300.556 42.503)" fill="#e8e8e8" fill-rule="evenodd"/>
      <rect id="Retângulo_5" data-name="Retângulo 5" width="129.874" height="65.882" rx="16.131" transform="translate(315.93 270.748)" fill="#80cfd3"/>
      <path id="Caminho_78" data-name="Caminho 78" d="M282.882,278.376l36.651,13.4-11.424-33.581Z" transform="translate(134.864 55.153)" fill="#80cfd3" fill-rule="evenodd"/>
      <path id="Caminho_79" data-name="Caminho 79" d="M260.913,255.3a7.181,7.181,0,1,1-7.18-7.182A7.18,7.18,0,0,1,260.913,255.3Z" transform="translate(97.002 44.655)" fill="#fff" fill-rule="evenodd"/>
      <path id="Caminho_80" data-name="Caminho 80" d="M274.768,255.3a7.181,7.181,0,1,1-7.182-7.182A7.18,7.18,0,0,1,274.768,255.3Z" transform="translate(111.441 44.655)" fill="#fff" fill-rule="evenodd"/>
      <path id="Caminho_81" data-name="Caminho 81" d="M288.623,255.3a7.181,7.181,0,1,1-7.182-7.182A7.181,7.181,0,0,1,288.623,255.3Z" transform="translate(125.88 44.655)" fill="#fff" fill-rule="evenodd"/>
      <path id="Caminho_82" data-name="Caminho 82" d="M439.326,344.328h-20l9.248,71.35Z" transform="translate(277.054 144.915)" fill="#42373b" fill-rule="evenodd"/>
      <path id="Caminho_83" data-name="Caminho 83" d="M418.284,313.862s-20.632-11.1-16.576-28.843,3.351-19.9,3.351-19.9-15.892,24.26-5.514,44.327l10.378,20.068Z" transform="translate(252.777 62.364)" fill="#d1d1d1" fill-rule="evenodd"/>
      <path id="Caminho_84" data-name="Caminho 84" d="M461.5,288.84l-13.072-16.723c1.726,8.844-1.029,17.376-9.369,25.521-1.411,15.185,4.146,41.014-4.611,46.4l28.234-8.953-.433-35.208Z" transform="translate(292.816 69.662)" fill="#d1d1d1" fill-rule="evenodd"/>
    </g>
    <g id="Grupo_5" data-name="Grupo 5" transform="translate(432.467 -230.565)">
      <path id="Caminho_85" data-name="Caminho 85" d="M510.443,860.182s14.552-87.327,72.7-142.141c0,0,30.8,115.631-47.708,144.72C529.754,864.865,510.443,860.182,510.443,860.182Z" transform="translate(42.285 38.472)" fill="#73804d"/>
      <path id="Caminho_86" data-name="Caminho 86" d="M538.043,789.451s-2.272-77.8-63.231-96.941c0,0-14.861,120.674,56.739,196.92l14.824,7.4Z" transform="translate(0 9.223)" fill="#73804d"/>
      <path id="Caminho_87" data-name="Caminho 87" d="M505.552,901.233s-26.5-151.294,42.788-216.774c0,0,36.621,110.578-23.883,221.591Z" transform="translate(30.977 0)" fill="#97a85e"/>
      <path id="Retângulo_6" data-name="Retângulo 6" d="M0,0H119.513a0,0,0,0,1,0,0V118.757a22.92,22.92,0,0,1-22.92,22.92H22.92A22.92,22.92,0,0,1,0,118.757V0A0,0,0,0,1,0,0Z" transform="translate(492.699 893.212)" fill="#e5e5e5"/>
      <path id="Caminho_88" data-name="Caminho 88" d="M586.931,878.674V785.49c-24.014,68.441-72.168,112.169-91.33,127.5a81.391,81.391,0,0,0,31.573,6.156h0C560.178,919.145,586.931,901.025,586.931,878.674Z" transform="translate(25.281 115.743)" fill="#dbdbdb"/>
    </g>
  </g>
</svg>
