<svg xmlns="http://www.w3.org/2000/svg" width="260" height="87.546" viewBox="0 0 260 87.546">
  <g id="Grupo_3" data-name="Grupo 3" transform="translate(-517.241 -390.917)">
    <g id="Grupo_1" data-name="Grupo 1" transform="translate(655.98 463.075)">
      <path id="Caminho_1" data-name="Caminho 1" d="M991.945,650.077a7.415,7.415,0,0,1-2.18-5.77,7.247,7.247,0,0,1,2.169-5.674q2.169-1.955,6.294-1.955a10.184,10.184,0,0,1,5.589,1.314,5.1,5.1,0,0,1,2.34,3.815h-2.842a4.391,4.391,0,0,0-1.624-2.832,5.408,5.408,0,0,0-3.355-.972,4.33,4.33,0,0,0-3.644,1.614,7.543,7.543,0,0,0-1.25,4.691,7.763,7.763,0,0,0,1.261,4.787,4.325,4.325,0,0,0,3.655,1.646,5.36,5.36,0,0,0,3.345-.972,4.408,4.408,0,0,0,1.614-2.832h2.842a5.1,5.1,0,0,1-2.34,3.815,10.091,10.091,0,0,1-5.546,1.314Q994.124,652.064,991.945,650.077Z" transform="translate(-989.765 -636.677)" fill="#767679"/>
      <path id="Caminho_2" data-name="Caminho 2" d="M1063.441,651.145a6.7,6.7,0,0,1-2.981-2.661,8.022,8.022,0,0,1-1.036-4.178,7.768,7.768,0,0,1,1.036-4.1,6.7,6.7,0,0,1,2.981-2.618,12.131,12.131,0,0,1,9.211,0,6.7,6.7,0,0,1,2.981,2.618,7.77,7.77,0,0,1,1.036,4.1,8.024,8.024,0,0,1-1.036,4.178,6.708,6.708,0,0,1-2.971,2.661,12.026,12.026,0,0,1-9.222,0Zm8.292-2.052a7.762,7.762,0,0,0,1.261-4.787,7.5,7.5,0,0,0-1.261-4.691,5.006,5.006,0,0,0-7.362,0,7.45,7.45,0,0,0-1.272,4.691,7.763,7.763,0,0,0,1.261,4.787,4.952,4.952,0,0,0,7.373,0Z" transform="translate(-1038.97 -636.677)" fill="#767679"/>
      <path id="Caminho_3" data-name="Caminho 3" d="M1129.735,637.4h3.783l2.906,9.425,3.484-9.425h2.586l3.676,10.216L1149.7,637.4h2.137l-5.214,15.174h-2.437l-3.782-10.664-3.783,10.664h-1.923Z" transform="translate(-1088.638 -637.191)" fill="#767679"/>
      <path id="Caminho_4" data-name="Caminho 4" d="M1220.587,651.145a6.7,6.7,0,0,1-2.981-2.661,8.02,8.02,0,0,1-1.037-4.178,7.766,7.766,0,0,1,1.037-4.1,6.7,6.7,0,0,1,2.981-2.618,12.132,12.132,0,0,1,9.211,0,6.705,6.705,0,0,1,2.981,2.618,7.771,7.771,0,0,1,1.036,4.1,8.025,8.025,0,0,1-1.036,4.178,6.711,6.711,0,0,1-2.971,2.661,12.026,12.026,0,0,1-9.222,0Zm8.292-2.052a7.762,7.762,0,0,0,1.261-4.787,7.5,7.5,0,0,0-1.261-4.691,5.006,5.006,0,0,0-7.363,0,7.451,7.451,0,0,0-1.271,4.691,7.763,7.763,0,0,0,1.261,4.787,4.952,4.952,0,0,0,7.373,0Z" transform="translate(-1149.976 -636.677)" fill="#767679"/>
      <path id="Caminho_5" data-name="Caminho 5" d="M1305.318,651.3q.395.791.737.769v.3h-3.547a4.464,4.464,0,0,1-.737-1.09,15.778,15.778,0,0,1-.694-1.667,14.571,14.571,0,0,0-1-2.2,2.491,2.491,0,0,0-1.218-1.09h-3.484v6.048h-3.612V637.4h6.775a10.908,10.908,0,0,1,5.182,1,3.579,3.579,0,0,1,1.827,3.419q0,3.27-3.526,4.125a4.558,4.558,0,0,1,1.272,1.186,9.255,9.255,0,0,1,1.037,1.913Q1304.922,650.505,1305.318,651.3Zm-9.948-6.3h3.184a4.129,4.129,0,0,0,2.511-.663,2.957,2.957,0,0,0,.887-2.5,2.868,2.868,0,0,0-.887-2.447,4.183,4.183,0,0,0-2.511-.652h-3.184Z" transform="translate(-1203.089 -637.191)" fill="#767679"/>
      <path id="Caminho_6" data-name="Caminho 6" d="M1358.979,645.8l-1.646,1.645v4.916H1353.7V637.4h3.633v6.9l6.967-6.9h3.12l-5.941,5.92,6.625,9.04h-4.3Z" transform="translate(-1246.844 -637.191)" fill="#767679"/>
    </g>
    <g id="Grupo_2" data-name="Grupo 2" transform="translate(517.241 390.917)">
      <path id="Caminho_7" data-name="Caminho 7" d="M548.28,488.525a13.726,13.726,0,0,1-6.419,1.707,9.835,9.835,0,0,1-4.671-1.138,11.015,11.015,0,0,1-3.738-3.291,17.266,17.266,0,0,1-2.519-5.159A22.666,22.666,0,0,1,530,473.9a28,28,0,0,1,.65-5.931,17.828,17.828,0,0,1,2.113-5.444,12.532,12.532,0,0,1,3.738-3.982A9.611,9.611,0,0,1,542.024,457a6.872,6.872,0,0,1,1.219.163l8.776,10.644,3.006-14.3q-3.656-.732-7.273-1.219a53.809,53.809,0,0,0-7.191-.487,27.453,27.453,0,0,0-9.872,1.666,19.7,19.7,0,0,0-11.863,11.9,26.188,26.188,0,0,0-1.585,9.263,23.071,23.071,0,0,0,1.463,8.247,20.65,20.65,0,0,0,4.062,6.7,18.949,18.949,0,0,0,6.3,4.51,20.787,20.787,0,0,0,8.247,1.748,21.466,21.466,0,0,0,11.335-2.845,28.485,28.485,0,0,0,8.9-8.531l-2.357-1.788A25.569,25.569,0,0,1,548.28,488.525Z" transform="translate(-517.241 -433.923)" fill="#ec2928"/>
      <path id="Caminho_8" data-name="Caminho 8" d="M997.248,463.273q-2.846,0-3.9-1.788a10.361,10.361,0,0,1-1.056-5.2V430.609h8.45v-4.063h-8.613V414.44l-16.657,14.707v1.463h4.55l.081,27.382q0,5.526,3.067,8.491a11,11,0,0,0,7.991,2.967,15.548,15.548,0,0,0,6.9-1.585,16.344,16.344,0,0,0,5.688-4.672l-1.381-1.706A9.023,9.023,0,0,1,997.248,463.273Z" transform="translate(-840.929 -407.533)" fill="#ec2928"/>
      <path id="Caminho_9" data-name="Caminho 9" d="M1353.387,451.857l-3.865-6.5v-54.44l-16.657,3.738,4.388,6.5.081,44.2-3.783,6.5Z" transform="translate(-1093.387 -390.917)" fill="#ec2928"/>
      <path id="Caminho_10" data-name="Caminho 10" d="M1218.7,459.654l1.056-3.982H1193.1l-1.328,4.957h10.355a3.2,3.2,0,0,1,2.844,1.463,5.87,5.87,0,0,1,.975,3.331,5.309,5.309,0,0,1-.975,3.21,9.043,9.043,0,0,1-2.518,2.316,17.764,17.764,0,0,1-3.453,1.666q-1.91.691-3.7,1.259-2.519.9-5.037,1.909a21.534,21.534,0,0,0-4.551,2.478,11.846,11.846,0,0,0-3.291,3.575,10.159,10.159,0,0,0-1.26,5.281,11.95,11.95,0,0,0,.894,4.713,10.427,10.427,0,0,0,6.215,5.891,14,14,0,0,0,4.754.772,16.135,16.135,0,0,0,7.516-2.153,18.975,18.975,0,0,0,5.809-5.159V497.6h16.3l-3.946-6.582Zm-12.27,27.708a15.075,15.075,0,0,1-3.453,2.315,9.894,9.894,0,0,1-4.022,1.015,6.2,6.2,0,0,1-4.1-1.056,4.419,4.419,0,0,1-1.747-3.9,5.925,5.925,0,0,1,.569-2.682,7.509,7.509,0,0,1,1.544-2.072,14.047,14.047,0,0,1,2.193-1.706q1.22-.772,2.52-1.5,1.867-1.055,3.656-2.276a9.734,9.734,0,0,0,2.844-2.924Z" transform="translate(-986.227 -436.659)" fill="#ec2928"/>
      <path id="Caminho_11" data-name="Caminho 11" d="M1098.031,461.726A3.553,3.553,0,0,1,1101,460.71h3.413l9.345,8.613,3.629-13.651h-37.431l5.037,6.338v29.008l-3.865,6.582h20.811l-4.677-6.5V465.342A6.209,6.209,0,0,1,1098.031,461.726Z" transform="translate(-914.732 -436.659)" fill="#ec2928"/>
      <path id="Caminho_12" data-name="Caminho 12" d="M673.636,476.607q.573,6.486,3.858,10.055a10.773,10.773,0,0,0,8.29,3.571,13.93,13.93,0,0,0,6.608-1.724,22.7,22.7,0,0,0,6.362-5.335l2.38,1.805a27.532,27.532,0,0,1-8.619,8.783,20.782,20.782,0,0,1-10.753,2.709,23.05,23.05,0,0,1-8.7-1.56A18.933,18.933,0,0,1,662.1,483.626a25.972,25.972,0,0,1-1.519-9.153,26.912,26.912,0,0,1,1.519-9.317,19.817,19.817,0,0,1,4.391-7.1,18.936,18.936,0,0,1,7.018-4.515,26.323,26.323,0,0,1,9.316-1.559,22.123,22.123,0,0,1,9.768,1.929,15.6,15.6,0,0,1,6.2,5.253A17.723,17.723,0,0,1,701.627,467a33.606,33.606,0,0,1-.247,9.6Zm9.357-19.125q-3.775,0-6.443,3.8t-3,11.225h16.5a40.918,40.918,0,0,0,.082-4.58,19.056,19.056,0,0,0-.78-4.911,9.708,9.708,0,0,0-2.216-3.921A5.431,5.431,0,0,0,682.994,457.482Z" transform="translate(-618.497 -434.052)" fill="#ec2928"/>
      <path id="Caminho_13" data-name="Caminho 13" d="M840.585,449.747a15.434,15.434,0,0,1,5.793,1.018,10.074,10.074,0,0,1,4.242,3.216,15.873,15.873,0,0,1,2.651,5.7,33.459,33.459,0,0,1,.939,8.549l-.082,17.506,4.723,6.513H837.4l4.351-6.513.08-17.18q0-6.35-1.678-9.119a5.51,5.51,0,0,0-5.034-2.768,10.323,10.323,0,0,0-4.339,1.018,15.331,15.331,0,0,0-4.338,3.134v24.915l4.838,6.513H809.592l4.641-6.6-.082-27.194-4.4-6.514,16.691-3.745.107,7.246A20.674,20.674,0,0,1,833,451.131,18.509,18.509,0,0,1,840.585,449.747Z" transform="translate(-723.754 -431.381)" fill="#ec2928"/>
      <path id="Caminho_14" data-name="Caminho 14" d="M661.144,539.405" transform="translate(-618.892 -495.807)" fill="#ec2928"/>
      <path id="Caminho_15" data-name="Caminho 15" d="M661.144,539.405" transform="translate(-618.892 -495.807)" fill="#ec2928"/>
    </g>
  </g>
</svg>
